<svg width="192" height="20" viewBox="0 0 192 20" fill="none" xmlns="http://www.w3.org/2000/svg">
<path d="M9.70972 9.7175L6.01265 7.33V10.2L9.70972 12.5875L18.5566 5.8725C18.2444 5.1625 17.8511 4.495 17.3939 3.885L9.70972 9.7175Z" fill="#323F48"/>
<path d="M19.4194 10C19.4194 9.3875 19.3654 8.79 19.2646 8.2075L17.1751 9.795C17.1751 9.8625 17.1776 9.9325 17.1776 10C17.1776 14.24 13.8271 17.69 9.71218 17.69C5.59722 17.69 2.24676 14.24 2.24676 10C2.24676 5.76 5.59722 2.31 9.71218 2.31C11.2731 2.31 12.7234 2.805 13.9205 3.6525L15.8084 2.22C14.1418 0.8325 12.0204 0 9.70972 0C4.34602 0 0 4.4775 0 10C0 15.5225 4.34602 20 9.70972 20C15.0734 20 19.4194 15.5225 19.4194 10Z" fill="#323F48"/>
<path d="M56.9506 7.41L59.6177 5.4075H50.6921V17.4425H59.6177V15.4375H53.2388V12.3575H58.6811V10.3525H53.2388V7.41H56.9506Z" fill="#323F48"/>
<path d="M43.5094 15.4375H40.8521V12.1025H43.5094C45.1269 12.1025 45.8791 12.66 45.8791 13.77C45.8791 14.88 45.0802 15.4375 43.5094 15.4375ZM43.9543 10.0975H40.8546V7.41H45.8028L48.4699 5.4075H38.3055V17.44H43.6249C46.6091 17.44 48.32 16.0625 48.32 13.66C48.32 11.2575 46.7689 10.0975 43.9543 10.0975Z" fill="#323F48"/>
<path d="M66.7955 12.03H64.5365V7.4125H66.7955C68.4277 7.4125 69.3274 8.2325 69.3274 9.7225C69.3274 11.2125 68.4277 12.0325 66.7955 12.0325V12.03ZM66.8496 5.4075H61.9898V17.44H64.5365V14.0325H66.8496C69.9518 14.0325 71.879 12.37 71.879 9.715C71.879 7.06 69.9518 5.4075 66.8496 5.4075Z" fill="#323F48"/>
<path d="M33.9324 14.835C33.2785 15.2025 32.519 15.3975 31.7324 15.3975C29.4364 15.3975 27.7698 13.7275 27.7698 11.425C27.7698 9.1225 29.4364 7.4525 31.7324 7.4525C32.6001 7.4525 33.3793 7.7025 34.0504 8.1925L35.8768 6.82L35.7564 6.7125C34.6895 5.7575 33.2638 5.2525 31.634 5.2525C29.8666 5.2525 28.2614 5.86 27.1159 6.965C25.9631 8.075 25.3289 9.6375 25.3289 11.3625C25.3289 13.0875 25.9606 14.68 27.1086 15.825C28.2614 16.9725 29.8617 17.605 31.6168 17.605C33.3719 17.605 35.0582 16.9525 36.1447 15.765C35.3065 15.135 34.4953 14.5275 34.4953 14.5275L33.9299 14.8425L33.9324 14.835Z" fill="#323F48"/>
<path d="M187.442 12.62L185.507 7.71L183.573 12.62H187.442ZM191.579 17.4275H189.342L188.214 14.5875H182.813L181.702 17.4275H179.566L184.345 5.45H186.734L191.579 17.4275Z" fill="#323F48"/>
<path d="M170.284 17.4275H168.18V5.45H170.284V10.48H172.049L175.834 5.45H178.393L173.9 11.1475L179.116 17.4275H176.424L172.15 12.2425H170.284V17.4275Z" fill="#323F48"/>
<path d="M156.398 14.4L162.826 5.45H165.114V17.4275H163.01V8.3425L156.55 17.4275H154.296V5.45H156.398V14.4Z" fill="#323F48"/>
<path d="M152.526 7.4175H148.556V17.4275H146.452V7.4175H142.549V5.45H152.526V7.4175Z" fill="#323F48"/>
<path d="M132.064 14.4L138.49 5.45H140.779V17.4275H138.677V8.3425L132.214 17.4275H129.96V5.45H132.064V14.4Z" fill="#323F48"/>
<path d="M124.788 7.4175H120.312L120.278 7.9825C120.199 9.4325 120.093 10.675 119.958 11.7125C119.823 12.75 119.666 13.63 119.486 14.3475C119.319 15.055 119.122 15.625 118.896 16.0575C118.682 16.48 118.454 16.805 118.205 17.0325C117.957 17.26 117.694 17.41 117.414 17.4775C117.143 17.545 116.871 17.58 116.59 17.58C116.197 17.58 115.885 17.5225 115.649 17.41V15.255C115.74 15.29 115.823 15.3125 115.902 15.3225C115.993 15.335 116.077 15.34 116.155 15.34C116.29 15.34 116.426 15.3175 116.558 15.2725C116.703 15.2275 116.844 15.125 116.979 14.965C117.124 14.795 117.259 14.5475 117.382 14.23C117.505 13.9 117.623 13.46 117.736 12.9125C117.849 12.365 117.95 11.685 118.038 10.875C118.129 10.065 118.201 9.085 118.257 7.9325L118.375 5.45H126.888V17.4275H124.783V7.4175H124.788Z" fill="#323F48"/>
<path d="M110.804 12.62L108.869 7.71L106.935 12.62H110.804ZM114.943 17.4275H112.707L111.578 14.5875H106.178L105.067 17.4275H102.93L107.709 5.45H110.098L114.943 17.4275Z" fill="#323F48"/>
<path d="M99.1719 12.2425H92.7266V17.4275H90.6249V5.45H92.7266V10.275H99.1719V5.45H101.274V17.4275H99.1719V12.2425Z" fill="#323F48"/>
<path d="M84.8261 12.62L82.8915 7.71L80.957 12.62H84.8261ZM88.9656 17.4275H86.7287L85.6004 14.5875H80.1998L79.0888 17.4275H76.9526L81.7313 5.45H84.1206L88.9656 17.4275Z" fill="#323F48"/>
</svg>
